<svg width="24" height="24" viewBox="0 0 24 24" fill="none" xmlns="http://www.w3.org/2000/svg">
<path d="M18.7547 21.8533C17.0424 21.8533 15.7904 20.6434 15.7904 18.9936C15.7904 18.9569 15.7904 18.9203 15.7904 18.8653C15.6431 18.8653 15.7904 2 15.7904 2H2L2.34982 19.2136C2.34982 20.7534 3.60183 22 5.14841 22L18.2392 21.8167" stroke="#2A2E37" stroke-miterlimit="10" stroke-linecap="round" stroke-linejoin="round"/>
<path d="M16.4165 20.8449C16.9873 21.4682 17.8158 21.8531 18.7364 21.8531C20.4487 21.8531 21.1483 20.6432 21.1483 18.9934C21.1483 18.9567 21.1483 18.92 21.1483 18.865L21.1667 6.6194H17.0977" stroke="#2A2E37" stroke-miterlimit="10" stroke-linecap="round" stroke-linejoin="round"/>
<path d="M10.6069 12.8553L11.2247 12.2175C11.6733 11.7543 12.4374 11.8313 12.7856 12.3748L13.4163 13.3593" stroke="#2A2E37" stroke-linecap="round"/>
<path d="M12 11.9565C12 13.7895 10.5077 15.2754 8.66671 15.2754C6.82576 15.2754 5.33337 13.7895 5.33337 11.9565C5.33337 10.1236 6.82576 8.63768 8.66671 8.63768C9.57537 8.63768 10.3991 8.99968 11.0004 9.58674" stroke="#2A2E37" stroke-linecap="round"/>
</svg>
