<svg width="24" height="24" viewBox="0 0 24 24" fill="none" xmlns="http://www.w3.org/2000/svg">
<path d="M7.09229 10.957L7.86322 5.70111H9.64955H16.5128L17.3966 11.1735" stroke="#2A2E37" stroke-miterlimit="10" stroke-linejoin="round"/>
<path d="M9.66846 5.64171L9.81889 3.88976H10.9659V2H13.2975V3.87007H14.4821L14.7642 5.50392" stroke="#2A2E37" stroke-miterlimit="10" stroke-linejoin="round"/>
<path d="M6.18975 17.8072C6.11454 17.5906 4.96753 12.0198 4.96753 12.0198L12.2068 8.77179L19.3145 12.0592L18.1863 17.8072" stroke="#2A2E37" stroke-miterlimit="10" stroke-linejoin="round"/>
<path d="M12.2068 8.75177V15.4447" stroke="#2A2E37" stroke-miterlimit="10" stroke-linejoin="round"/>
<path d="M23 19.008C21.1761 19.008 21.1761 17.4332 19.3333 17.4332C17.5094 17.4332 17.5094 19.008 15.6667 19.008C13.8427 19.008 13.8427 17.4332 12 17.4332C10.1761 17.4332 10.1761 19.008 8.33333 19.008C6.5094 19.008 6.5094 17.4332 4.66667 17.4332C2.84274 17.4332 2.84274 19.008 1 19.008" stroke="#2A2E37" stroke-miterlimit="10" stroke-linejoin="round"/>
</svg>
